name D:\school\WTK\thesis\model\3dpredictsim\Results\MidTarsalJoint\Fal_s1_bCst_PF_Natali2010_ls150_MT_k250_d020_MTP_T5_ig23.mot
datacolumns 128
datarows 4
range 0.56947742 0.60364606
endheader
time	pelvis_tilt	pelvis_list	pelvis_rotation	pelvis_tx	pelvis_ty	pelvis_tz	hip_flexion_l	hip_adduction_l	hip_rotation_l	hip_flexion_r	hip_adduction_r	hip_rotation_r	knee_angle_l	knee_angle_r	ankle_angle_l	ankle_angle_r	subtalar_angle_l	subtalar_angle_r	mtj_angle_l	mtj_angle_r	mtp_angle_l	mtp_angle_r	lumbar_extension	lumbar_bending	lumbar_rotation	arm_flex_l	arm_add_l	arm_rot_l	arm_flex_r	arm_add_r	arm_rot_r	elbow_flex_l	elbow_flex_r	pro_sup_l	pro_sup_r	glut_med1_l/activation	glut_med2_l/activation	glut_med3_l/activation	glut_min1_l/activation	glut_min2_l/activation	glut_min3_l/activation	semimem_l/activation	semiten_l/activation	bifemlh_l/activation	bifemsh_l/activation	sar_l/activation	add_long_l/activation	add_brev_l/activation	add_mag1_l/activation	add_mag2_l/activation	add_mag3_l/activation	tfl_l/activation	pect_l/activation	grac_l/activation	glut_max1_l/activation	glut_max2_l/activation	glut_max3_l/activation	iliacus_l/activation	psoas_l/activation	quad_fem_l/activation	gem_l/activation	peri_l/activation	rect_fem_l/activation	vas_med_l/activation	vas_int_l/activation	vas_lat_l/activation	med_gas_l/activation	lat_gas_l/activation	soleus_l/activation	tib_post_l/activation	flex_dig_l/activation	flex_hal_l/activation	tib_ant_l/activation	per_brev_l/activation	per_long_l/activation	per_tert_l/activation	ext_dig_l/activation	ext_hal_l/activation	ercspn_l/activation	intobl_l/activation	extobl_l/activation	glut_med1_r/activation	glut_med2_r/activation	glut_med3_r/activation	glut_min1_r/activation	glut_min2_r/activation	glut_min3_r/activation	semimem_r/activation	semiten_r/activation	bifemlh_r/activation	bifemsh_r/activation	sar_r/activation	add_long_r/activation	add_brev_r/activation	add_mag1_r/activation	add_mag2_r/activation	add_mag3_r/activation	tfl_r/activation	pect_r/activation	grac_r/activation	glut_max1_r/activation	glut_max2_r/activation	glut_max3_r/activation	iliacus_r/activation	psoas_r/activation	quad_fem_r/activation	gem_r/activation	peri_r/activation	rect_fem_r/activation	vas_med_r/activation	vas_int_r/activation	vas_lat_r/activation	med_gas_r/activation	lat_gas_r/activation	soleus_r/activation	tib_post_r/activation	flex_dig_r/activation	flex_hal_r/activation	tib_ant_r/activation	per_brev_r/activation	per_long_r/activation	per_tert_r/activation	ext_dig_r/activation	ext_hal_r/activation	ercspn_r/activation	intobl_r/activation	extobl_r/activation	
          0.56947742	         -2.92808691	          2.28459132	         -5.67390016	          0.71184677	          0.91841193	          0.00117829	         28.92896009	          3.84094530	         -1.78676715	        -16.38191937	         -1.58062534	          6.89164240	        -12.08057191	        -10.84398746	          4.26662861	         -3.48196343	         -3.58888529	         11.52674328	         -0.02245699	          4.82385720	         -0.85006378	         11.84490176	         -1.85982630	         -0.62210658	          2.02861318	         -5.50748773	        -13.46652750	          6.71170191	          4.48586682	        -13.47400378	         16.77454371	         15.79855624	         36.21659668	         86.51662706	         86.51662706	          0.05000013	          0.05000011	          0.05000007	          0.05000031	          0.05000024	          0.05000012	          0.05000058	          0.05000019	          0.16569643	          0.05000019	          0.05092080	          0.10020883	          0.19824991	          0.28937779	          0.20372197	          0.09509994	          0.05000006	          0.05019897	          0.08713901	          0.05152237	          0.05949136	          0.11382408	          0.05074126	          0.05456855	          0.54286287	          0.12822384	          0.08343463	          0.07078432	          0.20025218	          0.20105921	          0.17089285	          0.05000000	          0.05000001	          0.05000000	          0.05000015	          0.05000031	          0.05000040	          0.55627160	          0.20055956	          0.19510190	          0.36978741	          0.50370137	          0.07818353	          0.05000000	          0.10206199	          0.08827171	          0.26881125	          0.08423007	          0.06432366	          0.26372175	          0.18005591	          0.08915380	          0.05000092	          0.05000015	          0.05000019	          0.05175131	          0.08808883	          0.11220895	          0.08756417	          0.05763530	          0.05000515	          0.05000100	          0.26150569	          0.09397674	          0.05012891	          0.05000092	          0.05000061	          0.05000070	          0.31798480	          0.53433944	          0.05797712	          0.05949380	          0.05949136	          0.17341500	          0.05000274	          0.16153307	          0.14696769	          0.24521153	          0.33307863	          0.29930209	          0.22559827	          0.21204239	          0.28318947	          0.05000001	          0.05000015	          0.14845744	          0.05000004	          0.05000001	          0.05000006	          0.05000008	          0.07078428	          0.05458207	
          0.58086697	         -2.92186870	          2.37404751	         -5.90529228	          0.72935342	          0.91747081	          0.00099979	         28.12433650	          4.15154714	         -1.53412875	        -16.18869551	         -1.87454027	          6.68811893	        -12.38753483	        -12.83911840	          3.71893083	         -4.20347222	         -4.00973566	         12.51277231	         -0.15064186	          3.75831972	         -0.87916678	         13.63237929	         -1.64445266	         -0.84151586	          2.09367953	         -6.42589646	        -13.47636432	          6.45996867	          4.10038964	        -13.48865933	         17.02180222	         15.48963794	         37.39074891	         86.51662706	         86.51662706	          0.30288154	          0.05000008	          0.23937937	          0.05000034	          0.05000018	          0.28629641	          0.07514013	          0.05000059	          0.14923529	          0.05000005	          0.05000015	          0.08422153	          0.21301060	          0.24321032	          0.17122038	          0.12726651	          0.05000045	          0.05950890	          0.11385788	          0.05000006	          0.05000012	          0.09566455	          0.05507554	          0.05000032	          0.45625409	          0.10776693	          0.15700366	          0.05949134	          0.16830384	          0.16898212	          0.14362850	          0.05949117	          0.05949119	          0.05949127	          0.05000008	          0.05000035	          0.05000040	          0.53985206	          0.31256498	          0.16397521	          0.32722797	          0.53271853	          0.06571007	          0.05000001	          0.10911221	          0.07418877	          0.35932385	          0.07079194	          0.05406145	          0.22164748	          0.15132968	          0.07493015	          0.05000106	          0.05000027	          0.05000022	          0.05000006	          0.07403519	          0.14261930	          0.07528257	          0.05949141	          0.05948783	          0.05948660	          0.21978505	          0.08422855	          0.05003403	          0.05002933	          0.05004035	          0.05943670	          0.26725342	          0.50902757	          0.05949101	          0.05000240	          0.05000009	          0.14574824	          0.07946249	          0.13576208	          0.12352045	          0.20609028	          0.27993899	          0.25155119	          0.18960615	          0.17821304	          0.23800924	          0.05000002	          0.05000089	          0.19105203	          0.05000007	          0.05000009	          0.05000011	          0.05413836	          0.05949130	          0.05949130	
          0.59225651	         -2.91341947	          2.46529193	         -6.10220323	          0.74699862	          0.91657683	          0.00081485	         27.21487475	          4.41160049	         -1.27510922	        -15.89887026	         -2.16209255	          6.48628648	        -12.69999078	        -14.96480186	          3.24776697	         -5.05821081	         -4.43300725	         13.44010176	         -0.18768312	          2.55956697	         -0.83840500	         15.41190923	         -1.42615092	         -1.06970210	          2.14882470	         -7.33126914	        -13.49116463	          6.28259843	          3.65887968	        -13.50587292	         17.19884849	         15.20224467	         38.54433497	         86.51662706	         86.51662706	          0.35080783	          0.28958240	          0.34200936	          0.11754556	          0.22216670	          0.24062061	          0.06315227	          0.09092696	          0.12542619	          0.07078435	          0.05000057	          0.07078477	          0.17902673	          0.20440844	          0.14390408	          0.15068099	          0.05000013	          0.05001495	          0.09569319	          0.21655193	          0.16162199	          0.13110987	          0.05000003	          0.05000003	          0.38346296	          0.09057382	          0.13195530	          0.05000006	          0.14145290	          0.15790082	          0.12071411	          0.05000002	          0.05000004	          0.05000000	          0.05000000	          0.05000003	          0.05000004	          0.61241186	          0.29365115	          0.16104911	          0.58030366	          0.56644937	          0.24238230	          0.07697696	          0.09170438	          0.06235264	          0.30199745	          0.05949775	          0.05000001	          0.31031924	          0.12718646	          0.06297575	          0.05000110	          0.05000006	          0.05000005	          0.05000012	          0.06222387	          0.13418823	          0.06327204	          0.05000031	          0.05000029	          0.05000018	          0.19693837	          0.07079930	          0.05000018	          0.05000035	          0.05000020	          0.05000012	          0.22461563	          0.46862724	          0.05000002	          0.05000013	          0.05000008	          0.12249547	          0.06753468	          0.11922999	          0.11923017	          0.17321047	          0.23527730	          0.21141850	          0.15935625	          0.14978084	          0.20003709	          0.09975290	          0.14526548	          0.16057595	          0.05000033	          0.12917783	          0.05000036	          0.07634534	          0.05000001	          0.05000002	
          0.60364606	         -2.90303668	          2.54749135	         -6.26421472	          0.76455794	          0.91578701	          0.00059540	         26.33202595	          4.66942006	         -1.02142719	        -15.46808743	         -2.42665551	          6.29233896	        -13.06135448	        -17.27657031	          2.80822440	         -5.98082455	         -4.86624489	         14.29552364	         -0.21430036	          1.24071884	         -0.82795063	         16.93493222	         -1.22347460	         -1.29328392	          2.19523626	         -8.17690253	        -13.50396815	          6.17904996	          3.20920548	        -13.52833264	         17.34074054	         14.90876899	         39.63336175	         86.51662706	         86.51662706	          0.45703553	          0.41659635	          0.47856914	          0.21288868	          0.19684479	          0.37504080	          0.07042067	          0.09295631	          0.10674047	          0.05949139	          0.05000014	          0.05949175	          0.15046472	          0.17180438	          0.19634749	          0.17363048	          0.05000012	          0.05000280	          0.08042712	          0.28365611	          0.21083866	          0.17306263	          0.05000004	          0.05000004	          0.32228498	          0.07612372	          0.21796900	          0.05000002	          0.24075256	          0.24910888	          0.20277654	          0.05000001	          0.05000004	          0.05000000	          0.09118224	          0.05060361	          0.05000068	          0.71023099	          0.24680181	          0.13535521	          0.48772159	          0.56262555	          0.29722773	          0.09447245	          0.07707379	          0.05240485	          0.25381657	          0.05000545	          0.05000003	          0.26081071	          0.10689507	          0.05292858	          0.05000061	          0.05000010	          0.05000011	          0.05000003	          0.05229676	          0.16406425	          0.10954655	          0.05000064	          0.05000689	          0.11613560	          0.16551890	          0.05950436	          0.05000019	          0.05000101	          0.05000066	          0.05000044	          0.18878028	          0.42042646	          0.05000006	          0.05000022	          0.05000005	          0.10295245	          0.10020817	          0.10020818	          0.10020820	          0.14557633	          0.19774097	          0.17768862	          0.13393244	          0.12588475	          0.16812306	          0.18486884	          0.12210744	          0.13495763	          0.27341163	          0.19917290	          0.14380169	          0.10503098	          0.05000000	          0.05000001	
